<svg width="40" height="40" viewBox="0 0 40 40" fill="none" xmlns="http://www.w3.org/2000/svg">
<path d="M16.6667 30V25C16.6667 24.116 17.0179 23.2681 17.643 22.643C18.2681 22.0179 19.116 21.6667 20 21.6667C20.8841 21.6667 21.7319 22.0179 22.3571 22.643C22.9822 23.2681 23.3334 24.116 23.3334 25V30M3.33337 13.3333L19.5534 5.22334C19.6921 5.15409 19.845 5.11804 20 5.11804C20.1551 5.11804 20.308 5.15409 20.4467 5.22334L36.6667 13.3333" stroke="#1C1C1E" stroke-width="3.33333" stroke-linecap="round" stroke-linejoin="round"/>
<path d="M33.3334 18.3333V31.6666C33.3334 32.5507 32.9822 33.3985 32.357 34.0237C31.7319 34.6488 30.8841 35 30 35H10C9.11597 35 8.26812 34.6488 7.643 34.0237C7.01788 33.3985 6.66669 32.5507 6.66669 31.6666V18.3333" stroke="#1C1C1E" stroke-width="3.33333" stroke-linecap="round" stroke-linejoin="round"/>
</svg>
